<svg width="180" height="180" fill="none" xmlns="http://www.w3.org/2000/svg"><g clip-path="url(#a)"><path d="M0 90a90 90 0 1 1 180 0A90 90 0 1 1 0 90z" fill="#B5F2C3"/><path fill="#B5F2C3" d="M0 0h180v180H0z"/><path d="M158.45 48.46C151 33.92 123.74 32.1 92.46 44.32c-8.94-10.92-22.6-15.13-32.7-9.3a20.1 20.1 0 0 0-7.95 8.64c-5.75-1.04-11.48-.27-16.47 2.61-11.73 6.77-15.44 22.94-9.67 38.29-4.9 6.6-7.31 13.54-5.8 20 2.06 8.72 10.44 15.17 22.52 18.78-4.65 6.37-16.72 18.84-16.72 45.07.32 47.9 60.53 30.3 92.45 7.84-9.55-14.52-30.94-43.85-46.08-49.66.93-.03 17.86-2.17 25.65-3.96 37.64-8.61 65.46-31.65 60.82-50.34 0 0 6.2-11.6-.06-23.83z" fill="url(#b)"/><path d="M148.7 164.54c-7.17-28.73-28.97-41.24-37.79-45.46 30.8-9.43 52.2-31.25 47.6-46.78-14.43 18.65-76.2 42.16-118.65 24.58-1.73 12.77 7.12 20.8 20.1 26.84 19.33 9.02 36.3 31.12 43.16 58.16 13.14-1.04 56.25 33.75 45.59-17.34z" fill="url(#c)"/><path d="M68.01 39.7a14.97 14.97 0 0 0-6.9 6.53l-.01.02a15.02 15.02 0 0 0-.71 12.65 256.75 256.75 0 0 1 8.37-4.21l.15-.08 2-.96.5-.23a344.74 344.74 0 0 1 5.82-2.69c3.57-1.6 7.08-3.1 10.43-4.46a15.05 15.05 0 0 0-19.65-6.57z" fill="#F0F0F0"/><path d="M64.16 43.21a6.64 6.64 0 0 0-3.06 3.03 15.02 15.02 0 0 0-.71 12.65 256.75 256.75 0 0 1 5.95-3.02l.6-.3 1.82-.89.15-.07 2-.96.5-.23a356.74 356.74 0 0 1 5.82-2.69l.24-.1c-3.27-6.1-9.06-9.4-13.31-7.42z" fill="#000"/><path d="M41.93 50.94A17.78 17.78 0 0 0 34 75.84a45.22 45.22 0 0 1 1.23-1.07l.05-.04.6-.5.15-.13.55-.44.09-.07c.2-.17.42-.33.64-.5l.16-.13.58-.44.11-.08.69-.52.16-.12.6-.44.14-.1.73-.51.17-.12.63-.44.16-.1c.25-.18.5-.36.77-.53l.15-.1.67-.46.18-.11.8-.53.15-.1.7-.45.2-.13.84-.53.13-.07.75-.47a180.15 180.15 0 0 1 1.08-.67l.1-.05.8-.49.23-.14.9-.53.05-.04.85-.5c.1-.04.18-.1.27-.15l.82-.47.1-.06c3.84-2.2 7.95-4.4 12.14-6.52a17.8 17.8 0 0 0-22.18-6.05z" fill="#F0F0F0"/><path d="M37.37 55.1a7.73 7.73 0 0 0-3.42 3.22A17.75 17.75 0 0 0 34 75.85l.55-.5.14-.12.54-.46.05-.04a56.93 56.93 0 0 1 1.3-1.07l.08-.07.65-.5.16-.13.58-.44.1-.08.7-.52.16-.12.6-.44.14-.1.73-.51.16-.12.64-.44.16-.1c.25-.18.5-.36.77-.53l.15-.1.67-.46.18-.11.8-.53.15-.1.7-.45.2-.13.84-.53.13-.07.75-.47.21-.14.87-.53.1-.05.8-.49.23-.14.9-.53.05-.04a182.2 182.2 0 0 1 1.94-1.12l.1-.06.72-.41c-3.93-6.72-10.47-10.26-15.32-8z" fill="#000"/></g><defs><linearGradient id="b" x1="23.65" y1="97.52" x2="164.82" y2="97.52" gradientUnits="userSpaceOnUse"><stop stop-color="#279B53"/><stop offset="1" stop-color="#39E674"/></linearGradient><linearGradient id="c" x1="39.64" y1="115.68" x2="147.41" y2="115.68" gradientUnits="userSpaceOnUse"><stop stop-color="#5EDF60"/><stop offset="1" stop-color="#84EE60"/></linearGradient><clipPath id="a"><circle cx="90" cy="90" r="90"/></clipPath></defs></svg>