<svg width="180" height="180" fill="none" xmlns="http://www.w3.org/2000/svg"><g clip-path="url(#a)"><path fill-rule="evenodd" clip-rule="evenodd" d="M0 0h180v78.75l-3.75 4.88c-2.57 3.52-5.1 6.76-7.54 9.64-4.43 5.22-8.76 9.48-12.81 12.02-2.3 1.43-4.9 2.57-7.68 2.58h-.02a9.79 9.79 0 0 1-6.95-3 12.2 12.2 0 0 1-2.56-4.1c-1.12-2.88-1.47-6.25-1.48-9.74 0-7.29 1.62-16.46 3.7-25.64a512.83 512.83 0 0 1 5.86-22.71l-28.79-9.73-44.02 72.38-6.9-2.5 5.97-39.54-25.7-8.86-43.56 57.24L0 116.23v37.52l3.74-5.62 50.36-66.5-7.78 56.5 25.83 8.8L112 81.79l6.9 2.53-.73 4.73a83.47 83.47 0 0 0-1.15 12.85c0 4.5.52 9.16 1.99 13.44a24.08 24.08 0 0 0 7.62 11.16 29.05 29.05 0 0 0 10.03 5.11c2.71.82 5.38 1.2 8 1.2 3.97 0 7.94-.87 11.93-2.54 4-1.67 8-4.14 11.98-7.3a84.46 84.46 0 0 0 7.68-6.97l3.75-3.5V180H0V0z" fill="url(#b)"/><path d="M78.5 60.22 45.85 48.97 0 109.24v52.04l47.2-62.35-5.85 42.53 33.08 11.25 39.31-64.27c-1.9 12.16-5.03 39.69 21.8 47.8 15.88 4.8 30.95-3.17 44.45-16.96v-48.9c-13.2 20.16-26.08 34.6-32.78 32.74-11.26-3.12-1.11-39.52 5.43-63l.1-.36-36.6-12.36-43.5 71.54 5.84-38.7z" fill="url(#c)"/></g><defs><linearGradient id="b" x1="90" y1="-42.83" x2="90" y2="197.09" gradientUnits="userSpaceOnUse"><stop stop-color="#FFE55B"/><stop offset="1" stop-color="#FC0"/></linearGradient><linearGradient id="c" x1="87.82" y1="-2.81" x2="90.8" y2="159.61" gradientUnits="userSpaceOnUse"><stop stop-color="#3E3F3A"/><stop offset="1"/></linearGradient><clipPath id="a"><circle cx="90" cy="90" r="90"/></clipPath></defs></svg>