<svg xmlns="http://www.w3.org/2000/svg" width="40" height="40"><g fill="none" fill-rule="evenodd"><path fill="#000" d="M8.41 2h23.18c2.23 0 3.04.23 3.85.67a4.54 4.54 0 0 1 1.9 1.89c.43.81.66 1.62.66 3.85v23.18c0 2.23-.23 3.04-.67 3.85a4.54 4.54 0 0 1-1.89 1.9c-.81.43-1.62.66-3.85.66H8.41c-2.23 0-3.04-.23-3.85-.67a4.54 4.54 0 0 1-1.9-1.89C2.24 34.63 2 33.82 2 31.6V8.41c0-2.23.23-3.04.67-3.85a4.54 4.54 0 0 1 1.89-1.9C5.37 2.24 6.18 2 8.4 2z"/><path fill="#FFF" fill-rule="nonzero" d="M9 14h3v17H9zm19 0h3v17h-3zM13 9h14v3H13z"/></g></svg>