<svg width="32" height="32" fill="none" xmlns="http://www.w3.org/2000/svg"><path d="M32 16a16 16 0 1 1-32 0 16 16 0 0 1 32 0z" fill="#FF8C5F"/><path d="M12.51 5.14a.33.33 0 0 0-.61.26l2.63 6.35a.88.88 0 0 0 .61-.25l-2.63-6.36z" fill="#fff"/><path d="M12.08 4.96c.17-.07.36.01.43.18l2.63 6.36a.89.89 0 0 0 .2-.97l-2.32-5.6a.89.89 0 1 0-1.63.68l2.31 5.6a.9.9 0 0 0 .83.54L11.9 5.4a.33.33 0 0 1 .18-.44z" fill="#fff"/><path d="M15.14 11.5a.89.89 0 0 1-.61.25l1.4 3.38a.33.33 0 1 0 .61-.25l-1.4-3.38zm2.98 3.2v-4.55a.88.88 0 0 1-.67 0v4.54a.33.33 0 0 0 .67 0z" fill="#fff"/><path d="M18.12 4.16a.33.33 0 1 0-.67 0v6a.88.88 0 0 0 .67 0v-6z" fill="#fff"/><path d="M17.79 3.83c.18 0 .33.15.33.33v6a.89.89 0 0 0 .55-.83V4.16a.89.89 0 0 0-1.77 0v5.17c0 .37.23.69.55.82V4.16c0-.18.15-.33.34-.33zm5.89 1.57a.33.33 0 0 0-.62-.26l-1.92 4.64a.88.88 0 0 0 .62.25l1.92-4.63z" fill="#fff"/><path d="M23.5 4.96c.17.07.25.27.18.44l-1.92 4.63c.35 0 .68-.2.82-.55l1.6-3.87a.89.89 0 1 0-1.63-.68l-1.6 3.88a.89.89 0 0 0 .2.97l1.91-4.64a.33.33 0 0 1 .44-.18z" fill="#fff"/><path d="M21.76 10.03a.88.88 0 0 1-.62-.25l-2.11 5.1a.33.33 0 1 0 .61.25l2.12-5.1zm-.87 6.09 4.53-4.54a.88.88 0 0 1-.47-.47l-4.53 4.54a.33.33 0 1 0 .47.47z" fill="#fff"/><path d="M28.34 8.2c.13.13.13.34 0 .47l-2.92 2.9c.33.15.71.08.98-.18l2.33-2.33a.89.89 0 0 0-1.26-1.25l-2.33 2.33a.89.89 0 0 0-.19.97l2.92-2.91a.33.33 0 0 1 .47 0z" fill="#fff"/><path d="M28.34 8.67a.33.33 0 1 0-.47-.47l-2.92 2.9a.88.88 0 0 0 .47.48l2.92-2.91zm-.35 5.85c.04.11.1.2.18.28l3.22-1.33a.33.33 0 1 0-.25-.61l-3.22 1.33c0 .11.02.22.07.33z" fill="#fff"/><path d="M31.85 13.83c-.07-.5-.16-1-.27-1.5a.88.88 0 0 0-.66.02l-2.45 1.01a.89.89 0 0 0-.55.83l3.22-1.33a.33.33 0 1 1 .25.61l-3.22 1.33a.9.9 0 0 0 .97.2l2.46-1.02c.1-.04.18-.09.25-.15zm-3.93.36-6.52 2.7a.33.33 0 0 0 .26.61l6.51-2.7a.88.88 0 0 1-.25-.61zm1.2 4.22h-7.28a.33.33 0 1 0 0 .67h7.28a.88.88 0 0 1 0-.67zm-.95 4.28-6.51-2.7a.33.33 0 0 0-.26.61l6.52 2.7a.88.88 0 0 1 .25-.61zm-2.75 3.22-4.53-4.53a.33.33 0 1 0-.47.47l4.53 4.53a.88.88 0 0 1 .47-.47zm-3.66 1.55-2.12-5.1a.33.33 0 1 0-.61.26l2.11 5.1a.88.88 0 0 1 .62-.26zm-3.64-.12V22.8a.33.33 0 1 0-.67 0v4.54a.88.88 0 0 1 .67 0zM15.14 26l1.4-3.38a.33.33 0 0 0-.61-.26l-1.4 3.38a.88.88 0 0 1 .61.26zm-2.09-2.05 2.1-2.1a.33.33 0 0 0-.46-.47l-2.11 2.1a.88.88 0 0 1 .47.47zm1.12-3.35a.33.33 0 1 0-.25-.61l-2.37.98a.88.88 0 0 1 .25.61l2.37-.98zm-.44-2.19h-2.42a.89.89 0 0 1 0 .67h2.42a.33.33 0 1 0 0-.67zM11.8 15.9a.88.88 0 0 1-.25.62l2.37.98a.33.33 0 0 0 .25-.61l-2.37-.98zm3.36-.25-2.11-2.11a.88.88 0 0 1-.47.47l2.1 2.1a.33.33 0 0 0 .48-.46z" fill="#fff"/><path d="M7.7 8.2a.33.33 0 1 0-.46.47L12.58 14a.88.88 0 0 0 .47-.47L7.71 8.2z" fill="#fff"/><path d="M7.24 8.2a.33.33 0 0 1 .47 0l5.34 5.34a.89.89 0 0 0-.19-.97L8.1 7.8a.89.89 0 1 0-1.25 1.25l4.76 4.76c.26.26.65.33.97.19L7.24 8.67a.33.33 0 0 1 0-.47zM4 13.04a.33.33 0 0 1 .44-.18l7.36 3.05a.9.9 0 0 0-.54-.83l-6.61-2.73a.89.89 0 0 0-.68 1.63l6.6 2.74a.9.9 0 0 0 .98-.2l-7.37-3.05a.33.33 0 0 1-.18-.43z" fill="#fff"/><path d="M4.44 12.86a.33.33 0 1 0-.26.61l7.37 3.05a.88.88 0 0 0 .25-.61l-7.36-3.05zm-1.57 5.89c0-.19.15-.34.33-.34h8.11a.89.89 0 0 0-.82-.55H3.2a.89.89 0 0 0 0 1.77h7.3c.36 0 .68-.23.81-.55H3.2a.33.33 0 0 1-.33-.33z" fill="#fff"/><path d="M3.2 18.41a.33.33 0 1 0 0 .67h8.11a.88.88 0 0 0 0-.67H3.2zm8.35 2.56a.89.89 0 0 0-.97-.2l-6.6 2.74a.89.89 0 0 0 .67 1.64l6.6-2.74a.89.89 0 0 0 .55-.83l-7.36 3.06a.33.33 0 1 1-.26-.62l7.37-3.05z" fill="#fff"/><path d="M11.8 21.58a.89.89 0 0 0-.25-.61l-7.37 3.05a.33.33 0 0 0 .26.62l7.36-3.06zm-3.87 8.24a.89.89 0 0 0 .17-.13l4.76-4.76a.89.89 0 0 0-1.25-1.26l-4.76 4.76a.88.88 0 0 0-.26.51c.43.32.88.61 1.34.88zm5.42 1.96 1.99-4.81a.89.89 0 0 0-.2-.97l-2.35 5.68.56.1zm1.18-6.04-2.4 5.79.66.15L15.14 26a.88.88 0 0 0-.61-.26zm0 0c-.35 0-.69.2-.83.55l-2.1 5.1.53.14 2.4-5.79zm2.92 1.6v4.6l.67-.08v-4.52a.88.88 0 0 0-.67 0zm0 0a.89.89 0 0 0-.55.82v3.82l.55-.05v-4.59zm1.22 4.44v-3.62a.89.89 0 0 0-.55-.82v4.52l.55-.08zm2.47-4.06 1.23 2.96.6-.28-1.21-2.94a.88.88 0 0 0-.62.26z" fill="#fff"/><path d="M21.14 27.72a.89.89 0 0 0-.2.97l.92 2.2.51-.2-1.23-2.97zm2.33 2.43-.89-2.14a.89.89 0 0 0-.82-.55l1.21 2.94.5-.25zm1.48-3.77a.89.89 0 0 0 .2.98l1 1 .43-.35-1.63-1.63z" fill="#fff"/><path d="m24.95 26.38 1.63 1.63.49-.45-1.65-1.65a.88.88 0 0 0-.47.47z" fill="#fff"/><path d="M27.46 27.17 26.4 26.1a.89.89 0 0 0-.98-.19l1.65 1.65.39-.4zm.46-3.87c0 .35.2.69.55.83l1.05.44.29-.48-1.9-.79z" fill="#fff"/><path d="m27.92 23.3 1.89.79a16 16 0 0 0 .33-.59l-1.97-.81a.88.88 0 0 0-.25.61z" fill="#fff"/><path d="m30.39 23-1.25-.5a.89.89 0 0 0-.97.19l1.97.81.25-.5zm-1.27-3.92c.13.32.45.55.82.55h1.65l.11-.55h-2.58zm0 0h2.58c.05-.22.09-.44.12-.67h-2.7a.89.89 0 0 0 0 .67z" fill="#fff"/><path d="M31.9 17.86h-1.96a.89.89 0 0 0-.82.55h2.7l.07-.55z" fill="#fff"/></svg>