<svg width="32" height="32" viewBox="0 0 32 32" fill="none" xmlns="http://www.w3.org/2000/svg">
<g clip-path="url(#clip0)">
<path fill-rule="evenodd" clip-rule="evenodd" d="M32 0H0V32H32V0ZM31.0588 14.9271L17.2988 15.8212L16.8941 14.0047L31.0588 8.32L32 8.96V4.8L31.0588 6.37177L15.9341 14.4659L14.8141 12.9788L21.8729 5.74118H19.8118L12.5271 15.8494V5.74118H10.5412V26.2588H12.5271V16.1788L19.8118 26.2588H21.8541L15.0588 19.2941L16.1694 17.7976L31.0588 25.6376L32 27.2V23.04L31.0588 23.68L16.8 17.9576L17.2141 16.1412L31.0588 17.0824L32 18.08V13.92L31.0588 14.9271Z" fill="black"/>
<path d="M32 5L15.7866 13.6798L24.2353 5H19.558L13.7992 12.9866V5H10V27H13.7992V19.0319L19.558 27H24.2353L16.0084 18.5882L32 27V22.9143L17.4134 17.063L32 18.0429V13.9571L17.5059 14.9L32 9.08571V5Z" fill="url(#paint0_radial_409_168173)"/>
</g>
<defs>
<radialGradient id="paint0_radial_409_168173" cx="0" cy="0" r="1" gradientUnits="userSpaceOnUse" gradientTransform="translate(9.99907 5.00591) rotate(45) scale(31.1127)">
<stop offset="0.5" stop-color="#FF5500"/>
<stop offset="1" stop-color="#BBFF00"/>
</radialGradient>
<clipPath id="clip0">
<circle cx="16" cy="16" r="16" />
</clipPath>
</defs>
</svg>
