<svg width="100" height="43" fill="none" xmlns="http://www.w3.org/2000/svg"><g clip-path="url(#clip0)"><path d="M93.778 34.197c1.888 0 3.227-.343 4.222-1.064v-3.329c-1.03.72-2.265 1.167-3.981 1.167-2.918 0-4.12-2.265-4.12-5.835 0-3.74 1.477-5.663 4.154-5.663 1.579 0 3.123.55 3.947 1.064v-3.466c-.858-.481-2.368-.824-4.393-.824-5.217 0-7.929 3.74-7.929 8.992 0 5.767 2.643 8.958 8.1 8.958zm-25.536-1.51v-3.329c-1.27.858-3.398 1.613-5.388 1.613-2.986 0-4.12-1.407-4.29-4.29h9.85v-2.163c0-6.006-2.643-8.271-6.727-8.271-4.977 0-7.345 3.81-7.345 9.027 0 6.006 2.951 8.923 8.168 8.923 2.609 0 4.531-.686 5.732-1.51zM30.831 16.59v6.83h-5.458v-6.83H21.29v17.264h4.084v-7.207h5.458v7.207h4.084V16.59h-4.084zm22.515 14.038h-1.819V16.59h-11.91v1.476c0 4.222-.274 9.679-1.716 12.562h-1.27V37.8h3.776v-3.947h9.164v3.947h3.775v-7.173zm27.939 3.226h4.633l-6.555-9.301 5.766-7.963H81.01l-5.766 7.963V16.59H71.16v17.264h4.084v-8.477l6.04 8.477zm-19.667-14.38c2.025 0 2.643 1.68 2.643 3.843v.343h-5.698c.103-2.745 1.099-4.187 3.055-4.187zM47.443 30.627h-5.766c1.132-2.609 1.441-7.31 1.441-10.297v-.515h4.325v10.812z" fill="#000"/><path d="M17.857 33.854h-4.153V13.226h-1.853c-3.398 0-5.183 1.716-5.183 4.256 0 2.883 1.235 4.222 3.775 5.938l2.094 1.407-6.04 9.027H2l5.423-8.066c-3.123-2.23-4.874-4.393-4.874-8.065 0-4.6 3.192-7.723 9.267-7.723h6.041v23.854z" fill="#FC3F1D"/></g><defs><clipPath id="clip0"><path fill="#fff" d="M0 0h100v43H0z"/></clipPath></defs></svg>