<svg width="32" height="32" fill="none" xmlns="http://www.w3.org/2000/svg"><g clip-path="url(#a)"><mask id="b" mask-type="alpha" maskUnits="userSpaceOnUse" x="0" y="0" width="32" height="32"><circle cx="16" cy="16" r="16" fill="#fff"/></mask><g mask="url(#b)"><path d="M6.47 3.14A16 16 0 0 1 14.56.06V4.9a11.2 11.2 0 1 0 12.43 8.93l4.05-3.26v-.03a16 16 0 1 1-24.57-7.4z" fill="#FCCA00"/><path d="m27.98 5.4.02.04-2.7 4.3a11.26 11.26 0 0 0-3.86-3.53V16a5.44 5.44 0 1 1-2.4-4.51V.29c3.53.68 6.65 2.52 8.94 5.1z" fill="#FC3F1D"/></g></g><defs><clipPath id="a"><path fill="#fff" d="M0 0h32v32H0z"/></clipPath></defs></svg>