<svg width="16" height="14" viewBox="0 0 16 14" fill="none" xmlns="http://www.w3.org/2000/svg">
<path d="M14.95 5.0875C14.8874 4.89061 14.7668 4.71723 14.604 4.59009C14.4412 4.46294 14.2437 4.38797 14.0375 4.375L10.325 4.11875L8.95002 0.65C8.87494 0.459002 8.74426 0.29494 8.57488 0.179052C8.40551 0.0631652 8.20525 0.000789302 8.00002 0C7.7948 0.000789302 7.59454 0.0631652 7.42516 0.179052C7.25579 0.29494 7.1251 0.459002 7.05002 0.65L5.65002 4.1375L1.96252 4.375C1.75659 4.38881 1.55954 4.4641 1.39686 4.59112C1.23418 4.71814 1.11336 4.89106 1.05002 5.0875C0.984985 5.28695 0.981185 5.50131 1.03911 5.70294C1.09704 5.90458 1.21404 6.08423 1.37502 6.21875L4.21252 8.61875L3.36877 11.9375C3.3104 12.162 3.3209 12.3989 3.39892 12.6174C3.47695 12.8358 3.61888 13.0258 3.80627 13.1625C3.98817 13.293 4.20488 13.3664 4.42867 13.373C4.65247 13.3797 4.87316 13.3195 5.06252 13.2L7.99377 11.3438H8.00627L11.1625 13.3375C11.3244 13.4427 11.5132 13.4991 11.7063 13.5C11.8639 13.4988 12.0192 13.4614 12.1602 13.3908C12.3011 13.3201 12.424 13.2181 12.5194 13.0926C12.6147 12.967 12.68 12.8213 12.7103 12.6666C12.7405 12.5118 12.7349 12.3522 12.6938 12.2L11.8 8.56875L14.625 6.21875C14.786 6.08423 14.903 5.90458 14.9609 5.70294C15.0189 5.50131 15.0151 5.28695 14.95 5.0875Z" fill="black" fill-opacity="0.5"/>
</svg>
