<svg width="14" height="15" viewBox="0 0 14 15" fill="none" xmlns="http://www.w3.org/2000/svg">
<path fill-rule="evenodd" clip-rule="evenodd" d="M6.41554 1.18037C6.58681 1.06042 6.79085 0.996078 6.99995 0.996078C7.20905 0.996078 7.41309 1.06042 7.58436 1.18037C7.75331 1.2987 7.88231 1.46548 7.95439 1.6586L9.32715 5.11546C9.32856 5.11901 9.32993 5.12257 9.33125 5.12615C9.33252 5.12956 9.33475 5.13253 9.33768 5.1347C9.34061 5.13687 9.34411 5.13813 9.34775 5.13834L9.35084 5.13853L13.0386 5.37605C13.9958 5.43821 14.3227 6.63644 13.626 7.21557C13.6259 7.21568 13.6258 7.21579 13.6257 7.21589L10.8015 9.57147L10.7998 9.57283C10.7935 9.57809 10.7887 9.58503 10.7861 9.59286C10.7836 9.60048 10.7833 9.60864 10.7851 9.61644C10.7851 9.61666 10.7852 9.61687 10.7852 9.61709L11.6971 13.2022C11.9179 14.0737 10.9768 14.858 10.1582 14.3416L10.1569 14.3409L7.00695 12.3409L7.27482 11.919L7.00666 12.3407C7.00466 12.3394 7.00233 12.3387 6.99995 12.3387C6.99758 12.3387 6.99525 12.3394 6.99325 12.3407L4.06214 14.1968C4.06196 14.1969 4.06178 14.1971 4.06159 14.1972C3.16358 14.768 2.12643 13.8999 2.37168 12.9391C2.37171 12.9389 2.37174 12.9388 2.37177 12.9387L3.21467 9.61709C3.21472 9.6169 3.21476 9.61671 3.21481 9.61652C3.21664 9.60869 3.21628 9.6005 3.21376 9.59286C3.21118 9.58503 3.20644 9.57809 3.20009 9.57283L3.19844 9.57147L0.374252 7.21589C0.374118 7.21578 0.373985 7.21567 0.373851 7.21556C-0.322796 6.63643 0.00407775 5.43821 0.961303 5.37605L4.64907 5.13853L4.65216 5.13834C4.6558 5.13813 4.65929 5.13687 4.66222 5.1347C4.66515 5.13253 4.66738 5.12956 4.66865 5.12615C4.66998 5.12257 4.67134 5.11901 4.67275 5.11546L6.04551 1.6586C6.11759 1.46548 6.24659 1.2987 6.41554 1.18037ZM7.54296 11.4966C7.54305 11.4967 7.54315 11.4968 7.54324 11.4968L10.6917 13.4959C10.6918 13.4959 10.692 13.496 10.6921 13.4961C10.6978 13.4996 10.7011 13.5008 10.7021 13.5011C10.7035 13.5008 10.7078 13.4996 10.7137 13.4951C10.7213 13.4894 10.7261 13.4822 10.7283 13.4764C10.7293 13.4738 10.73 13.4709 10.7302 13.4674C10.7304 13.464 10.7303 13.4576 10.7278 13.4478L9.81538 9.86075L9.81467 9.85791C9.76731 9.66703 9.77484 9.46666 9.83639 9.27987C9.89781 9.09349 10.0105 8.92821 10.1616 8.80298C10.1619 8.80271 10.1623 8.80244 10.1626 8.80217L12.9868 6.44661C12.9926 6.44175 12.9951 6.43826 12.9961 6.43659C12.9973 6.43476 12.9983 6.43261 12.9991 6.42965C13.0008 6.4229 13.0015 6.41127 12.9973 6.39784C12.9932 6.38445 12.987 6.37793 12.9852 6.3764C12.9846 6.37586 12.9844 6.3758 12.9841 6.37571C12.9841 6.37569 12.9812 6.37445 12.9739 6.37396C12.9739 6.37396 12.9739 6.37395 12.9738 6.37395L9.28966 6.13666C9.28907 6.13662 9.28847 6.13659 9.28788 6.13655C9.09093 6.12474 8.90163 6.056 8.74298 5.93865C8.58565 5.82227 8.46521 5.66306 8.396 5.48011L7.02275 2.02204C7.02096 2.01752 7.01923 2.01298 7.01757 2.00842C7.01626 2.0048 7.01386 2.00168 7.01071 1.99947C7.00756 1.99726 7.0038 1.99608 6.99995 1.99608C6.9961 1.99608 6.99235 1.99726 6.9892 1.99947C6.98604 2.00168 6.98365 2.0048 6.98233 2.00842C6.98067 2.01298 6.97894 2.01752 6.97715 2.02204L5.60391 5.48011C5.5347 5.66306 5.41425 5.82227 5.25692 5.93865C5.09828 6.056 4.90898 6.12474 4.71203 6.13655L1.0261 6.37395C1.02605 6.37395 1.02599 6.37396 1.02594 6.37396C1.01877 6.37444 1.0159 6.37565 1.01576 6.37571C1.01555 6.37579 1.01531 6.37589 1.01471 6.3764C1.01289 6.37794 1.00674 6.38445 1.0026 6.39784C0.998437 6.41128 0.999059 6.4229 1.00084 6.42965C1.00162 6.43261 1.00261 6.43476 1.00377 6.43659C1.00483 6.43826 1.0073 6.44175 1.01315 6.44661L1.01396 6.44728L3.83732 8.80217C3.83765 8.80244 3.83798 8.80271 3.8383 8.80298C3.98938 8.92821 4.10209 9.09349 4.16351 9.27987C4.22507 9.46666 4.2326 9.66703 4.18524 9.85791L4.18459 9.86048L3.34063 13.1863C3.32257 13.257 3.34749 13.3118 3.39316 13.3465C3.41653 13.3642 3.44014 13.3719 3.4588 13.3732C3.47423 13.3743 3.4956 13.372 3.52526 13.3532L3.5262 13.3526L6.45666 11.4968C6.45691 11.4967 6.45717 11.4965 6.45742 11.4963C6.45743 11.4963 6.45741 11.4963 6.45742 11.4963C6.61964 11.3934 6.80782 11.3387 6.99995 11.3387C7.19228 11.3387 7.38063 11.3935 7.54296 11.4966Z" fill="black" fill-opacity="0.5"/>
</svg>
